# xmcd CD database file
#
# Track frame offsets:
#	150
#	17934
#	34466
#	47700
#	59759
#	75113
#	88507
#	106220
#	117034
#	133820
#	151624
#	176462
#
# Disc length: 2415 seconds
#
# Revision: 0
# Processed by: cddbd v1.5.1PL0 Copyright (c) Steve Scherf et al.
# Submitted via: CDex 1.51
#
DISCID=90096d0c
DTITLE=PIL - MAID iN HEAVEN SuperS - PIL
DYEAR=2005
DGENRE=Game
TTITLE0=うた [メイドさんグルーヴィ スーパーリミックス] 南ピル子
TTITLE1=BGM [青空の予感]
TTITLE2=BGM [メイド的好日]
TTITLE3=BGM [晴天なり]
TTITLE4=BGM [いつもより多く回っております]
TTITLE5=うた [バナナとキュウリの歌] 南ピル子
TTITLE6=BGM [夜と街の隅で]
TTITLE7=BGM [毎日あきずによーやるよ]
TTITLE8=BGM [なるよーにしかならないのさ]
TTITLE9=[メイドさんグルーヴィ スーパーリミックス] sing-along
TTITLE10=[バナナとキュウリの歌] sing-along
TTITLE11=オマケデータ [なぎさの人生訓スクリーンセーバー and 壁紙]
EXTD=YEAR: 2005
EXTT0=
EXTT1=
EXTT2=
EXTT3=
EXTT4=
EXTT5=
EXTT6=
EXTT7=
EXTT8=
EXTT9=
EXTT10=
EXTT11=
PLAYORDER=
